Results
version=1
nRows=4
nColumns=213
inDegrees=yes
endheader
time	platform_rx	platform_ry	platform_rz	platform_ty	pelvis_tilt	pelvis_list	pelvis_rotation	pelvis_tx	pelvis_ty	pelvis_tz	hip_flexion_r	hip_adduction_r	hip_rotation_r	knee_angle_r	knee_angle_r_beta	ankle_angle_r	subtalar_angle_r	mtp_angle_r	hip_flexion_l	hip_adduction_l	hip_rotation_l	knee_angle_l	knee_angle_l_beta	ankle_angle_l	subtalar_angle_l	mtp_angle_l	lumbar_extension	lumbar_bending	lumbar_rotation	arm_flex_r	arm_add_r	arm_rot_r	elbow_flex_r	pro_sup_r	wrist_flex_r	wrist_dev_r	arm_flex_l	arm_add_l	arm_rot_l	elbow_flex_l	pro_sup_l	wrist_flex_l	wrist_dev_l	platform_rx_u	platform_ry_u	platform_rz_u	platform_ty_u	pelvis_tilt_u	pelvis_list_u	pelvis_rotation_u	pelvis_tx_u	pelvis_ty_u	pelvis_tz_u	hip_flexion_r_u	hip_adduction_r_u	hip_rotation_r_u	knee_angle_r_u	knee_angle_r_beta_u	ankle_angle_r_u	subtalar_angle_r_u	mtp_angle_r_u	hip_flexion_l_u	hip_adduction_l_u	hip_rotation_l_u	knee_angle_l_u	knee_angle_l_beta_u	ankle_angle_l_u	subtalar_angle_l_u	mtp_angle_l_u	lumbar_extension_u	lumbar_bending_u	lumbar_rotation_u	arm_flex_r_u	arm_add_r_u	arm_rot_r_u	elbow_flex_r_u	pro_sup_r_u	wrist_flex_r_u	wrist_dev_r_u	arm_flex_l_u	arm_add_l_u	arm_rot_l_u	elbow_flex_l_u	pro_sup_l_u	wrist_flex_l_u	wrist_dev_l_u	addbrev_r.activation	addlong_r.activation	addlong_r.fiber_length	addmagDist_r.activation	addmagIsch_r.activation	addmagIsch_r.fiber_length	addmagMid_r.activation	addmagProx_r.activation	bflh_r.activation	bflh_r.fiber_length	bfsh_r.activation	edl_r.activation	edl_r.fiber_length	ehl_r.activation	ehl_r.fiber_length	fdl_r.activation	fdl_r.fiber_length	fhl_r.activation	fhl_r.fiber_length	gaslat_r.activation	gaslat_r.fiber_length	gasmed_r.activation	gasmed_r.fiber_length	glmax1_r.activation	glmax2_r.activation	glmax3_r.activation	glmed1_r.activation	glmed2_r.activation	glmed3_r.activation	glmin1_r.activation	glmin2_r.activation	glmin3_r.activation	glmin3_r.fiber_length	grac_r.activation	iliacus_r.activation	perbrev_r.activation	perbrev_r.fiber_length	perlong_r.activation	perlong_r.fiber_length	piri_r.activation	piri_r.fiber_length	psoas_r.activation	recfem_r.activation	recfem_r.fiber_length	sart_r.activation	semimem_r.activation	semimem_r.fiber_length	semiten_r.activation	semiten_r.fiber_length	soleus_r.activation	soleus_r.fiber_length	tfl_r.activation	tfl_r.fiber_length	tibant_r.activation	tibant_r.fiber_length	tibpost_r.activation	tibpost_r.fiber_length	vasint_r.activation	vasint_r.fiber_length	vaslat_r.activation	vaslat_r.fiber_length	vasmed_r.activation	vasmed_r.fiber_length	addbrev_l.activation	addlong_l.activation	addlong_l.fiber_length	addmagDist_l.activation	addmagIsch_l.activation	addmagIsch_l.fiber_length	addmagMid_l.activation	addmagProx_l.activation	bflh_l.activation	bflh_l.fiber_length	bfsh_l.activation	edl_l.activation	edl_l.fiber_length	ehl_l.activation	ehl_l.fiber_length	fdl_l.activation	fdl_l.fiber_length	fhl_l.activation	fhl_l.fiber_length	gaslat_l.activation	gaslat_l.fiber_length	gasmed_l.activation	gasmed_l.fiber_length	glmax1_l.activation	glmax2_l.activation	glmax3_l.activation	glmed1_l.activation	glmed2_l.activation	glmed3_l.activation	glmin1_l.activation	glmin2_l.activation	glmin3_l.activation	glmin3_l.fiber_length	grac_l.activation	iliacus_l.activation	perbrev_l.activation	perbrev_l.fiber_length	perlong_l.activation	perlong_l.fiber_length	piri_l.activation	piri_l.fiber_length	psoas_l.activation	recfem_l.activation	recfem_l.fiber_length	sart_l.activation	semimem_l.activation	semimem_l.fiber_length	semiten_l.activation	semiten_l.fiber_length	soleus_l.activation	soleus_l.fiber_length	tfl_l.activation	tfl_l.fiber_length	tibant_l.activation	tibant_l.fiber_length	tibpost_l.activation	tibpost_l.fiber_length	vasint_l.activation	vasint_l.fiber_length	vaslat_l.activation	vaslat_l.fiber_length	vasmed_l.activation	vasmed_l.fiber_length
      0.00307300	     20.00000000	     -0.00000000	     -0.00000000	      0.25000000	    -27.97685274	     -0.00000002	     -0.00000000	     -0.03597719	      0.54217662	     -0.00000000	    103.87423399	    -18.07109772	      0.50171376	    105.98661239	    105.98661239	     30.11163864	     -0.00000000	      0.00000000	    103.87423428	    -18.07109437	      0.50171382	    105.98661437	    105.98661437	     30.11163878	     -0.00000000	      0.00000000	     -0.15909494	      0.00000002	      0.00000000	     89.97621939	     -0.00166364	     89.83235876	      0.15514558	      0.15130420	     -0.00000000	      0.00000000	     89.97627556	     -0.00166124	     89.82465904	      0.15514490	      0.15130432	     -0.00000000	      0.00000000	      0.00000000	     -0.00000000	     -0.00000000	     -0.00000000	     81.98482611	     -0.00000981	     -0.00000152	      0.01475333	      0.11505491	     -0.00000002	    -82.04391725	     -5.27295482	     17.71859774	     -9.38801367	     -9.38801367	   -570.02783846	     -0.00000000	      0.00000000	    -82.04390638	     -5.27295066	     17.71862126	     -9.38801118	     -9.38801118	   -570.02784224	     -0.00000000	      0.00000000	   -103.40384266	      0.00001248	      0.00000032	     23.08656772	     -1.06033051	     -0.70721465	      2.96714320	      0.49274746	     -0.00000000	     -0.00000000	     23.08638401	     -1.06019940	     -0.70723364	      2.96670268	      0.49282240	     -0.00000000	      0.00000000	      0.01000000	      0.01000000	      0.10251809	      0.01000000	      0.01000000	      0.22474762	      0.01000000	      0.01000000	      0.01000000	      0.12257677	      0.01000000	      0.01000000	      0.05041193	      0.01000000	      0.05776774	      0.01000000	      0.04769345	      0.01000000	      0.05650578	      0.01000000	      0.05096693	      0.01000000	      0.03761580	      0.01000000	      0.01000000	      0.01000000	      0.01000000	      0.01000000	      0.01000000	      0.01000000	      0.01000000	      0.01000000	      0.04420448	      0.01000000	      0.01000000	      0.01000000	      0.05086793	      0.01000000	      0.05764199	      0.01000000	      0.03316852	      0.01000000	      0.01000000	      0.05088234	      0.01000000	      0.01000000	      0.07756055	      0.01000000	      0.22944724	      0.01000000	      0.06174196	      0.01000000	      0.02401564	      0.01000000	      0.04390417	      0.01000000	      0.04216106	      0.01000000	      0.13911844	      0.01000000	      0.13557588	      0.01000000	      0.13288404	      0.01000000	      0.01000000	      0.10251809	      0.01000000	      0.01000000	      0.22474762	      0.01000000	      0.01000000	      0.01000000	      0.12257677	      0.01000000	      0.01000000	      0.05041193	      0.01000000	      0.05776774	      0.01000000	      0.04769345	      0.01000000	      0.05650578	      0.01000000	      0.05096693	      0.01000000	      0.03761580	      0.01000000	      0.01000000	      0.01000000	      0.01000000	      0.01000000	      0.01000000	      0.01000000	      0.01000000	      0.01000000	      0.04420448	      0.01000000	      0.01000000	      0.01000000	      0.05086793	      0.01000000	      0.05764199	      0.01000000	      0.03316852	      0.01000000	      0.01000000	      0.05088234	      0.01000000	      0.01000000	      0.07756055	      0.01000000	      0.22944724	      0.01000000	      0.06174196	      0.01000000	      0.02401564	      0.01000000	      0.04390417	      0.01000000	      0.04216106	      0.01000000	      0.13911844	      0.01000000	      0.13557588	      0.01000000	      0.13288404
      0.00406872	     20.00000000	     -0.00000000	     -0.00000000	      0.25000000	    -27.88207274	     -0.00000003	     -0.00000000	     -0.03596021	      0.54230983	     -0.00000000	    103.77917978	    -18.07718747	      0.52199416	    105.97524162	    105.97524162	     29.45740966	     -0.00000000	      0.00000000	    103.77918009	    -18.07718412	      0.52199425	    105.97524360	    105.97524360	     29.45740980	     -0.00000000	      0.00000000	     -0.27864035	      0.00000003	      0.00000000	     90.00290923	     -0.00288905	     89.83154211	      0.15857462	      0.15187093	     -0.00000000	      0.00000000	     90.00296518	     -0.00288651	     89.82384237	      0.15857342	      0.15187113	     -0.00000000	      0.00000000	     -0.00000000	     -0.00000000	     -0.00000000	     -0.00000000	    108.36945456	     -0.00001294	     -0.00000197	      0.01933690	      0.15252730	     -0.00000002	   -108.89884430	     -6.95746194	     22.97028022	    -13.56976872	    -13.56976872	   -743.06479290	     -0.00000000	      0.00000000	   -108.89882996	     -6.95745648	     22.97031122	    -13.56976543	    -13.56976543	   -743.06479793	      0.00000000	      0.00000000	   -136.68940816	      0.00001646	      0.00000045	     30.51817154	     -1.40090099	     -0.93309924	      3.92004268	      0.64600727	      0.00000000	      0.00000000	     30.51792894	     -1.40072826	     -0.93312434	      3.91946214	      0.64610606	     -0.00000000	      0.00000000	      0.01000000	      0.01000000	      0.10249442	      0.01000000	      0.01000000	      0.22468306	      0.01000000	      0.01000000	      0.01000000	      0.12255367	      0.01000000	      0.01000000	      0.05073161	      0.01000000	      0.05813879	      0.01000000	      0.04768566	      0.01000000	      0.05647390	      0.01000000	      0.05081715	      0.01000000	      0.03748824	      0.01000000	      0.01000000	      0.01000000	      0.01000000	      0.01000000	      0.01000000	      0.01000000	      0.01000000	      0.01000000	      0.04418248	      0.01000000	      0.01000000	      0.01000000	      0.05084476	      0.01000000	      0.05761256	      0.01000000	      0.03315164	      0.01000000	      0.01000000	      0.05090084	      0.01000000	      0.01000000	      0.07754511	      0.01000000	      0.22940913	      0.01000000	      0.06154511	      0.01000000	      0.02401564	      0.01000000	      0.04431657	      0.01000000	      0.04214504	      0.01000000	      0.13911539	      0.01000000	      0.13557299	      0.01000000	      0.13288139	      0.01000000	      0.01000000	      0.10249442	      0.01000000	      0.01000000	      0.22468306	      0.01000000	      0.01000000	      0.01000000	      0.12255367	      0.01000000	      0.01000000	      0.05073161	      0.01000000	      0.05813879	      0.01000000	      0.04768566	      0.01000000	      0.05647390	      0.01000000	      0.05081715	      0.01000000	      0.03748824	      0.01000000	      0.01000000	      0.01000000	      0.01000000	      0.01000000	      0.01000000	      0.01000000	      0.01000000	      0.01000000	      0.04418248	      0.01000000	      0.01000000	      0.01000000	      0.05084476	      0.01000000	      0.05761256	      0.01000000	      0.03315164	      0.01000000	      0.01000000	      0.05090084	      0.01000000	      0.01000000	      0.07754511	      0.01000000	      0.22940913	      0.01000000	      0.06154511	      0.01000000	      0.02401564	      0.01000000	      0.04431657	      0.01000000	      0.04214504	      0.01000000	      0.13911539	      0.01000000	      0.13557299	      0.01000000	      0.13288139
      0.00465687	     20.00000000	     -0.00000000	     -0.00000000	      0.25000000	    -27.81376332	     -0.00000003	     -0.00000001	     -0.03594806	      0.54240607	     -0.00000000	    103.71044924	    -18.08157098	      0.53638226	    105.96644508	    105.96644508	     28.99103838	     -0.00000000	      0.00000000	    103.71044955	    -18.08156763	      0.53638237	    105.96644707	    105.96644707	     28.99103851	     -0.00000000	      0.00000000	     -0.36480218	      0.00000004	      0.00000000	     90.02214736	     -0.00377214	     89.83095397	      0.16104569	      0.15227809	     -0.00000000	      0.00000000	     90.02220316	     -0.00376949	     89.82325421	      0.16104414	      0.15227835	     -0.00000000	      0.00000000	      0.00000000	     -0.00000000	     -0.00000000	     -0.00000000	    123.91165758	     -0.00001480	     -0.00000222	      0.02197284	      0.17473331	     -0.00000002	   -124.82742263	     -7.94833033	     25.93974567	    -16.38799579	    -16.38799579	   -842.49878744	     -0.00000000	      0.00000000	   -124.82740623	     -7.94832411	     25.93978111	    -16.38799202	    -16.38799202	   -842.49879324	      0.00000000	      0.00000000	   -156.29751897	      0.00001881	      0.00000054	     34.90038711	     -1.60207772	     -1.06696550	      4.48295935	      0.73901153	      0.00000000	      0.00000000	     34.90010967	     -1.60188014	     -1.06699425	      4.48229533	      0.73912458	     -0.00000000	      0.00000000	      0.01000000	      0.01000000	      0.10247642	      0.01000000	      0.01000000	      0.22466671	      0.01000000	      0.01000000	      0.01000000	      0.12253596	      0.01000000	      0.01000000	      0.05097193	      0.01000000	      0.05841393	      0.01000000	      0.04767903	      0.01000000	      0.05644590	      0.01000000	      0.05071323	      0.01000000	      0.03740250	      0.01000000	      0.01000000	      0.01000000	      0.01000000	      0.01000000	      0.01000000	      0.01000000	      0.01000000	      0.01000000	      0.04416598	      0.01000000	      0.01000000	      0.01000000	      0.05082596	      0.01000000	      0.05758730	      0.01000000	      0.03313838	      0.01000000	      0.01000000	      0.05091714	      0.01000000	      0.01000000	      0.07753262	      0.01000000	      0.22938090	      0.01000000	      0.06140004	      0.01000000	      0.02401564	      0.01000000	      0.04461910	      0.01000000	      0.04213122	      0.01000000	      0.13911299	      0.01000000	      0.13557071	      0.01000000	      0.13287930	      0.01000000	      0.01000000	      0.10247642	      0.01000000	      0.01000000	      0.22466671	      0.01000000	      0.01000000	      0.01000000	      0.12253596	      0.01000000	      0.01000000	      0.05097193	      0.01000000	      0.05841393	      0.01000000	      0.04767903	      0.01000000	      0.05644590	      0.01000000	      0.05071323	      0.01000000	      0.03740249	      0.01000000	      0.01000000	      0.01000000	      0.01000000	      0.01000000	      0.01000000	      0.01000000	      0.01000000	      0.01000000	      0.04416598	      0.01000000	      0.01000000	      0.01000000	      0.05082596	      0.01000000	      0.05758730	      0.01000000	      0.03313838	      0.01000000	      0.01000000	      0.05091714	      0.01000000	      0.01000000	      0.07753262	      0.01000000	      0.22938089	      0.01000000	      0.06140004	      0.01000000	      0.02401564	      0.01000000	      0.04461910	      0.01000000	      0.04213122	      0.01000000	      0.13911299	      0.01000000	      0.13557071	      0.01000000	      0.13287931
      0.00538256	     20.00000000	     -0.00000000	     -0.00000000	      0.25000000	    -27.71689934	     -0.00000005	     -0.00000001	     -0.03593096	      0.54254284	     -0.00000000	    103.61271482	    -18.08778193	      0.55649306	    105.95317627	    105.95317627	     28.33596974	     -0.00000000	      0.00000000	    103.61271514	    -18.08777857	      0.55649319	    105.95317826	    105.95317826	     28.33596987	     -0.00000000	      0.00000000	     -0.48698455	      0.00000006	      0.00000000	     90.04943365	     -0.00502489	     89.83011948	      0.16455116	      0.15285731	     -0.00000000	      0.00000000	     90.04948924	     -0.00502208	     89.82241969	      0.16454908	      0.15285767	     -0.00000000	      0.00000000	     -0.00000000	     -0.00000000	      0.00000000	     -0.00000000	    143.03318770	     -0.00001709	     -0.00000252	      0.02513714	      0.20219919	     -0.00000003	   -144.53804668	     -9.16855127	     29.45698903	    -20.25570967	    -20.25570967	   -962.31080238	     -0.00000000	      0.00000000	   -144.53802772	     -9.16854412	     29.45702995	    -20.25570530	    -20.25570530	   -962.31080912	      0.00000000	      0.00000000	   -180.42160176	      0.00002170	      0.00000066	     40.29848166	     -1.85051880	     -1.23309163	      5.17819387	      0.85822925	      0.00000000	      0.00000000	     40.29816110	     -1.85029006	     -1.23312495	      5.17742538	      0.85836019	     -0.00000000	      0.00000000	      0.01000000	      0.01000000	      0.10245006	      0.01000000	      0.01000000	      0.22459978	      0.01000000	      0.01000000	      0.01000000	      0.12250990	      0.01000000	      0.01000000	      0.05131904	      0.01000000	      0.05880867	      0.01000000	      0.04766837	      0.01000000	      0.05640016	      0.01000000	      0.05058346	      0.01000000	      0.03729626	      0.01000000	      0.01000000	      0.01000000	      0.01000000	      0.01000000	      0.01000000	      0.01000000	      0.01000000	      0.01000000	      0.04414218	      0.01000000	      0.01000000	      0.01000000	      0.05079714	      0.01000000	      0.05754685	      0.01000000	      0.03311868	      0.01000000	      0.01000000	      0.05094402	      0.01000000	      0.01000000	      0.07751350	      0.01000000	      0.22934029	      0.01000000	      0.06119299	      0.01000000	      0.02401564	      0.01000000	      0.04505103	      0.01000000	      0.04210869	      0.01000000	      0.13910934	      0.01000000	      0.13556722	      0.01000000	      0.13287612	      0.01000000	      0.01000000	      0.10245005	      0.01000000	      0.01000000	      0.22459978	      0.01000000	      0.01000000	      0.01000000	      0.12250990	      0.01000000	      0.01000000	      0.05131904	      0.01000000	      0.05880867	      0.01000000	      0.04766837	      0.01000000	      0.05640016	      0.01000000	      0.05058346	      0.01000000	      0.03729626	      0.01000000	      0.01000000	      0.01000000	      0.01000000	      0.01000000	      0.01000000	      0.01000000	      0.01000000	      0.01000000	      0.04414218	      0.01000000	      0.01000000	      0.01000000	      0.05079714	      0.01000000	      0.05754685	      0.01000000	      0.03311868	      0.01000000	      0.01000000	      0.05094402	      0.01000000	      0.01000000	      0.07751350	      0.01000000	      0.22934029	      0.01000000	      0.06119299	      0.01000000	      0.02401564	      0.01000000	      0.04505103	      0.01000000	      0.04210869	      0.01000000	      0.13910934	      0.01000000	      0.13556722	      0.01000000	      0.13287612
